<?xml version="1.0" encoding="UTF-8"?>
<svg id="Layer_2" data-name="Layer 2" xmlns="http://www.w3.org/2000/svg" viewBox="0 0 2433.1 1164.21">
  <defs>
    <style>
      .cls-1 {
        fill: #2e3192;
      }

      .cls-2 {
        fill: #1a1a1a;
      }

      .cls-3 {
        fill: #999;
      }
    </style>
  </defs>
  <g id="Layer_1-2" data-name="Layer 1">
    <g>
      <path class="cls-3" d="M1001.46,340.2c9.34,17.53,18.22,35.43,25.53,53.98,106.04,268.99-32.13,556-303.48,645.48-18.65,6.15-39.45,11.17-58.9,13.39-1.64-1.39-1.21-26.2-1.14-30.43,1.35-76.71.56-152.73.25-229.75,19.13-28.38,45.11-50.89,67.3-76.73l.52-2.4c-18.17-46.49,42.31-87.54,79.22-53.61,23.15,21.29,21.95,56.6-2.77,76.01-15.69,12.32-30.04,8.6-48.46,8.55-19.73,18.61-37.58,39.2-55.59,59.43l-.02,191.58,1.56,1.97c27.19-9.44,54.12-19.96,79.56-33.48,182.3-100.82,271.38-303.84,215.18-507.25-7.69-27.83-20.3-53.86-31.64-80.29-.01-4.14,8.22-10.1,10.58-12.85,5.18-6.03,12.65-17.72,18.26-22.21,1.32-1.05,2.16-1.87,4.04-1.4ZM764.86,709.81c6.81,7.45,21.92,5.9,27.66-2.15,14.78-20.76-18.64-44.84-30.88-17.88-2.94,6.48-1.65,14.7,3.22,20.02Z"/>
      <path class="cls-3" d="M553.51,1057.66c-.68,2.2-8.24,1.62-10.54,1.54-6.88-.24-15.89-1.28-22.84-2.16-224.41-28.34-398.59-213.11-419.16-437.59-.49-5.34-2.61-33.72-.97-36.3.61-.96,1.41-1.17,2.5-.98,5.46,9.02,14.1,15.9,21.03,23.76,8.78,9.96,16.29,21.38,26.23,30.49,13.53,107.27,70.56,205.83,151.7,275.28,59.57,50.99,133.48,84.81,211.06,97.47.16-33.17-.24-66.37.05-99.55.04-4.3-1.45-8.02.19-12.72,5.69-8.11,13.46-14.82,19.73-22.26,3.49-4.15,15.14-22.12,19-23.03l2.03,1.06v205Z"/>
      <path class="cls-3" d="M498.51,148.66c-.21.73-1.9,1.91-2.76,2.24-7.44,2.9-20.17,4.22-28.45,6.55-160.43,45.01-280.13,172.75-313.51,336.49-.97,4.74-3.98,30.26-5.18,31.82-.64.84-1.57,1.33-2.64,1.37l-40.96-.96-2.06-.94c-2.11-3.04,4.66-35.28,5.88-41.25,38.88-190.66,186.2-337.91,376.46-377.54,2.56-.53,13.23-3.45,13.23.23v42Z"/>
      <path class="cls-3" d="M863.43,188.27c2.2,3.13-13.14,16.29-15.43,18.88-2.62,2.96-9.86,14.51-12.45,15.49-2.98,1.14-13.7-8.47-16.7-10.32-46.89-29.03-98.98-51.04-153.33-61.67-18.6-3.64-37.41-5.59-56.05-8.95l-.76-41.84,3.23-2.62c55,3.86,108.79,16.99,159.25,38.73,26.26,11.32,50.59,23.69,74.24,39.76,6.06,4.12,11.72,8.77,18.01,12.53Z"/>
      <path class="cls-3" d="M537.36,68.57l-.18,188.23c-16.94,24.16-40.17,43.26-59.05,66.02-3.84,3.55-7.54.02-12.23-.3-45.54-3.09-71.22,42.23-44.54,79.58l17.07,14.92c.82,53.61.43,107.78.55,161.21.06,26.04-1.85,58.44.34,83.87.44,5.06,2.25,6.42,4.05,10.75l2.34.56,28.63-32.38,4.97-8.03.25-215.75c5.45-5.01,10.76-5.86,16.32-11.68,8.89-9.31,14.61-22.51,14.57-35.51-.02-4.94-4.79-17.88-3.6-20.47l62.45-65.84,8.06-10.69V67.06c0-.21-1.5-1.13-1-1.49M472.01,383.21c-6.81,6.81-13.3,8.57-21.58,2.79-8.62-6.01-11.06-16.11-5.31-25.18,13.59-21.43,47.35,1.92,26.89,22.39Z"/>
      <g>
        <path class="cls-2" d="M210.14,938.96l21.64,20.86c90.38,84.42,212.35,134.12,336.47,138.53,4.23.15,16.61.71,19.84-.24,5.3-1.56,1.75-14.79,1.65-19.25-.43-19.93.06-40.19,0-60-.22-68.67.22-137.34.1-206,.73-3.98,27.11-32.4,31.93-38.07,2.06-2.41,2.54-5.71,6.01-6.48l.95,327.58c61.96-5.96,123.13-22.63,178.73-50.42,255.4-127.66,360.55-427.22,239.22-688.54-4.1-8.83-9.6-17.46-13.76-26.24-1.13-2.39-7.07-14.75-7.14-15.97-.12-2.1,3.45-5.96,5.04-7.88,10.01-12.07,22.75-27.37,33.46-38.54,1.82-1.9,3.54-4.54,6.46-3.95,10.86,20.2,23.32,39.55,33.22,60.28,156.83,328.49-11.3,710.13-357.41,814.94C411.17,1241.13,65.79,1017.32,8.08,676.51-48.1,344.69,195.4,33.15,528.3,2.31c132.57-12.28,280.57,24.65,388.42,103.56,2.08,1.52,12.1,9.34,12.08,10.91l-42.5,48.34c-16.64-12.22-33.89-23.78-51.84-33.99-166.59-94.81-381.42-86.77-539.39,21.95C28.98,336.21-12.47,703.57,210.14,938.96Z"/>
        <path class="cls-1" d="M1117.37,152.89c-190.36,216.45-380.82,433.11-570.1,650.4l-102.44,117.63-308.9-353.27.35-2.35,153.04-.04,12.44,1.56c29.54,33.41,59.3,66.75,88.53,100.47,15.74,18.16,31.61,39.91,47.98,57.02,1.98,2.07,3.61,4.53,6.84,4.06l56.15-66.08c162.66-184.54,323.2-370.57,486.96-554.04l82.01-2.99c27.43-.06,54.68-.35,82.08-.91,6.51-.13,10.4-3.04,3.43,5.43-11.85,14.41-25.92,28.93-38.39,43.11Z"/>
        <path class="cls-2" d="M322.14,414.96c25.9,26.86,52.03,53.64,78.09,80.41,8.7,13.48,6.04,34.22-12.19,36.68-7.56,1.02-14.49-.32-20.74-4.74l-119.01-121.99c-6.88-7.96-8.97-18.4-3.87-27.9l121.36-127.64c8.45-5.75,17.26-8.28,27.03-3.98,10.95,4.83,15.27,20.56,9.84,30.84-3.19,6.04-18.74,21.71-24.32,27.68-7.87,8.42-16.63,16.07-24.54,24.46l-55.82,59.17c-.26,1.34,1.1,2.8,1.86,3.85,4.49,6.22,16.31,16.9,22.34,23.16Z"/>
        <path class="cls-2" d="M879.38,591.75l32.46,34.04c13.96,17.88,35.04,33.64,48.94,51.04,13.59,17.01,5.77,26.75-6.46,40.49-35.61,40.03-75.72,76.49-111.99,116.01-19.75,15.62-47.32-7.43-34.36-29.36,25.62-27.07,50.88-54.47,76.32-81.68,9.12-9.75,19.8-18.21,27.18-29.49,0-3.07-14.09-14.49-17.06-17.6-25.06-26.29-55.69-55.21-78.57-82.43-6.81-8.1-11.57-14.33-9.78-25.74,1.95-12.5,15.41-21.44,27.79-18.26,13.28,3.41,33.04,34.82,45.56,42.97Z"/>
        <path class="cls-2" d="M649.44,408.95c-.93.98-2.54,1.56-3.7,2.79-3.12,3.32-15.91,16.28-17.16,18.85-4.63,9.5,2.51,22.71-2.37,32.63l-35.94,41.07c-2.75,1.12-.48-5.21-.44-6.44.98-26.87-1.03-53.92.2-80.8,5.93-8.43,14.23-15.17,21.27-22.73,8.82-9.47,17.15-19.57,25.97-29.03,6.27-6.72,28.18-25.83,30.52-32.56,1.31-3.75-.16-24-.05-29.97.05-3.05,1.56-5.41.85-8.73-.85-3.98-6.26-5.15-9.29-7.76-40.35-34.72-10.09-97.37,41.48-84.48,34.54,8.63,46.32,55.18,21.38,80.4-4.82,4.88-12.26,6.17-16.19,11.81-.89,18.19,3.34,37.33-.81,55.19-18.03,20.44-36.97,40.02-55.75,59.75ZM701.44,260.95c18.56-18.71-13.85-48.16-29.48-22.98-11.77,18.97,13.79,38.79,29.48,22.98Z"/>
      </g>
      <g>
        <path class="cls-1" d="M1261.3,528.52h-67.2v-39.6h183v39.6h-67.2v170.4h-48.6v-170.4Z"/>
        <path class="cls-1" d="M1540.61,631.42h-122.1c4.5,20.1,21.6,32.4,46.2,32.4,17.1,0,29.4-5.1,40.5-15.6l24.9,27c-15,17.1-37.5,26.1-66.6,26.1-55.8,0-92.1-35.1-92.1-83.1s36.9-83.1,86.1-83.1,84,31.8,84,83.7c0,3.6-.6,8.7-.9,12.6ZM1417.91,604.12h79.5c-3.3-20.4-18.6-33.6-39.6-33.6s-36.6,12.9-39.9,33.6Z"/>
        <path class="cls-1" d="M1557.1,683.92l15.6-33.6c14.4,9.3,36.3,15.6,56.1,15.6,21.6,0,29.7-5.7,29.7-14.7,0-26.4-97.5.6-97.5-63.9,0-30.6,27.6-52.2,74.7-52.2,22.2,0,46.8,5.1,62.1,14.1l-15.6,33.3c-15.9-9-31.8-12-46.5-12-21,0-30,6.6-30,15,0,27.6,97.5.9,97.5,64.5,0,30-27.9,51.3-76.2,51.3-27.3,0-54.9-7.5-69.9-17.4Z"/>
        <path class="cls-1" d="M1836.1,691.12c-9.6,6.9-23.7,10.2-38.1,10.2-38.1,0-60.3-19.5-60.3-57.9v-66.3h-24.9v-36h24.9v-39.3h46.8v39.3h40.2v36h-40.2v65.7c0,13.8,7.5,21.3,20.1,21.3,6.9,0,13.8-2.1,18.9-6l12.6,33Z"/>
        <path d="M2004.1,653.92h-97.5l-18.6,45h-49.8l93.6-210h48l93.9,210h-51l-18.6-45ZM1988.8,617.02l-33.3-80.4-33.3,80.4h66.6Z"/>
        <path d="M2092.3,476.32h46.8v222.6h-46.8v-222.6Z"/>
        <path d="M2182.6,476.32h46.8v222.6h-46.8v-222.6Z"/>
        <path d="M2433.1,537.52l-72.9,171.3c-15.6,39-37.8,50.7-66.9,50.7-16.5,0-34.5-5.4-45-14.7l17.1-33.3c7.2,6.3,17.1,10.2,26.4,10.2,12.9,0,20.1-5.7,26.4-20.1l.6-1.5-69.9-162.6h48.3l45.3,109.5,45.6-109.5h45Z"/>
      </g>
    </g>
  </g>
</svg>