<?xml version="1.0" encoding="UTF-8"?>
<svg id="Ebene_2" data-name="Ebene 2" xmlns="http://www.w3.org/2000/svg" viewBox="0 0 2485.11 1165">
  <defs>
    <style>
      .cls-1 {
        fill: #2e3192;
      }

      .cls-2 {
        fill: #999;
      }
    </style>
  </defs>
  <g id="Ebene_9" data-name="Ebene 9">
    <g>
      <path class="cls-1" d="M1314.07,528.82h-67.16v-39.57h182.88v39.57h-67.16v170.29h-48.57v-170.29Z"/>
      <path class="cls-1" d="M1593.19,631.65h-122.02c4.5,20.09,21.59,32.38,46.17,32.38,17.09,0,29.38-5.1,40.47-15.59l24.88,26.98c-14.99,17.09-37.48,26.08-66.56,26.08-55.76,0-92.04-35.08-92.04-83.05s36.88-83.05,86.04-83.05,83.95,31.78,83.95,83.65c0,3.6-.6,8.69-.9,12.59ZM1470.57,604.37h79.45c-3.3-20.39-18.59-33.58-39.57-33.58s-36.58,12.89-39.87,33.58Z"/>
      <path class="cls-1" d="M1609.68,684.12l15.59-33.58c14.39,9.29,36.28,15.59,56.06,15.59,21.59,0,29.68-5.7,29.68-14.69,0-26.38-97.44.6-97.44-63.86,0-30.58,27.58-52.17,74.65-52.17,22.19,0,46.77,5.1,62.06,14.09l-15.59,33.28c-15.89-8.99-31.78-11.99-46.47-11.99-20.99,0-29.98,6.6-29.98,14.99,0,27.58,97.44.9,97.44,64.46,0,29.98-27.88,51.27-76.15,51.27-27.28,0-54.86-7.5-69.85-17.39Z"/>
      <path class="cls-1" d="M1888.5,691.31c-9.59,6.9-23.68,10.19-38.08,10.19-38.08,0-60.26-19.49-60.26-57.86v-66.26h-24.88v-35.98h24.88v-39.27h46.77v39.27h40.17v35.98h-40.17v65.66c0,13.79,7.5,21.29,20.09,21.29,6.9,0,13.79-2.1,18.89-6l12.59,32.98Z"/>
      <path d="M2056.39,654.14h-97.44l-18.59,44.97h-49.77l93.54-209.86h47.97l93.84,209.86h-50.97l-18.59-44.97ZM2041.1,617.26l-33.28-80.35-33.28,80.35h66.56Z"/>
      <path d="M2144.53,476.65h46.77v222.46h-46.77v-222.46Z"/>
      <path d="M2234.77,476.65h46.77v222.46h-46.77v-222.46Z"/>
      <path d="M2485.11,537.81l-72.85,171.19c-15.59,38.97-37.78,50.67-66.86,50.67-16.49,0-34.48-5.4-44.97-14.69l17.09-33.28c7.2,6.3,17.09,10.19,26.38,10.19,12.89,0,20.09-5.7,26.38-20.09l.6-1.5-69.85-162.49h48.27l45.27,109.43,45.57-109.43h44.97Z"/>
    </g>
  </g>
  <g id="TestAlly_Logo" data-name="TestAlly Logo">
    <polygon class="cls-1" points="977.54 105.83 445.2 718.21 312.83 565.93 135.82 565.93 356.7 820.02 356.68 820.05 445.22 921.82 1154.54 105.83 977.54 105.83"/>
    <path d="M912.08,695.64l-103.28,103.37c-9.05,9.05-9.05,23.73,0,32.79h0c9.05,9.05,23.73,9.05,32.79,0l103.33-103.33h0l16.39-16.39c9.05-9.05,9.05-23.73,0-32.79l-16.39-16.39h0s-103.33-103.33-103.33-103.33c-9.05-9.05-23.73-9.05-32.79,0h0c-9.05,9.05-9.05,23.73,0,32.79l103.28,103.28Z"/>
    <path d="M295.83,387.83l103.28-103.37c9.05-9.05,9.05-23.73,0-32.79h0c-9.05-9.05-23.73-9.05-32.79,0l-103.33,103.33h0l-16.39,16.39c-9.05,9.05-9.05,23.73,0,32.79l16.39,16.39h0s103.33,103.33,103.33,103.33c9.05,9.05,23.73,9.05,32.79,0h0c9.05-9.05,9.05-23.73,0-32.79l-103.28-103.28Z"/>
    <path d="M1066.87,258.84l-45.84,52.74c48.66,78.73,76.76,171.54,76.76,270.92,0,269.35-206.34,490.47-469.45,513.68v-332.86l-38.48,44.27v290.55c-2.45.03-4.9.06-7.35.06-284.58,0-515.28-230.89-515.28-515.7S297.92,66.8,582.5,66.8c111.88,0,215.43,35.69,299.91,96.31l44.09-50.72C830.11,41.73,711.18,0,582.5,0,260.79,0,0,260.79,0,582.5s260.79,582.5,582.5,582.5,582.5-260.79,582.5-582.5c0-119.77-36.15-231.09-98.13-323.66Z"/>
    <path class="cls-2" d="M512.32,896.78v121.65c-194.03-31.07-345.74-188.81-367.62-385.76l-47.82-55.01c-.02,1.94-.04,3.89-.04,5.83,0,258.57,202.07,469.93,456.9,484.81v-219.19l-41.43,47.66Z"/>
    <path class="cls-2" d="M537.24,68.77v187.95l-61.46,70.7c-5.29-1.78-10.94-2.76-16.83-2.76-29.1,0-52.7,23.59-52.7,52.7,0,21.93,13.4,40.73,32.46,48.66v247.51l40.91-47.07v-200.63c18.83-8.04,32.03-26.72,32.03-48.49,0-8.39-1.97-16.31-5.46-23.35l31.05-35.71h0s40.4-46.47,40.4-46.47V66.83c-13.6.13-27.07.78-40.4,1.94ZM458.95,356.97c11.26,0,20.39,9.13,20.39,20.39s-9.13,20.39-20.39,20.39-20.39-9.13-20.39-20.39,9.13-20.39,20.39-20.39Z"/>
    <path class="cls-2" d="M612.59,98.77v45.24c81.28,5.49,156.52,33,219.79,76.65l29.78-34.26c-71.39-50.37-156.97-81.97-249.56-87.63Z"/>
    <path class="cls-2" d="M502.28,104.44c-212.11,35.26-377.75,207.98-402.29,423.53h45.46c23.97-190.58,169.7-343.26,356.83-377.7v-45.83Z"/>
    <path class="cls-2" d="M1000.18,335.56l-31.36,36.08c34.55,62.86,54.2,135.06,54.2,211.86,0,200.94-134.55,370.42-318.46,423.35v-198.11l55.97-64.39c4.62,1.32,9.49,2.05,14.53,2.05,29.1,0,52.7-23.59,52.7-52.7s-23.59-52.7-52.7-52.7-52.7,23.59-52.7,52.7c0,8.95,2.24,17.37,6.17,24.76l-65.11,74.9v269.07c229.7-38.53,404.73-238.29,404.73-478.94,0-90.58-24.8-175.36-67.98-247.94ZM775.06,673.32c11.26,0,20.39,9.13,20.39,20.39s-9.13,20.39-20.39,20.39-20.39-9.13-20.39-20.39,9.13-20.39,20.39-20.39Z"/>
    <path d="M688.04,195.36c-29.1,0-52.7,23.59-52.7,52.7,0,22.31,13.87,41.37,33.46,49.06v34.14l-71.4,82.14h0l-7.55,8.68v77.58l38.48-44.27v-18.92l78.95-90.82v-48.53c19.58-7.69,33.46-26.75,33.46-49.06,0-29.1-23.59-52.7-52.7-52.7ZM688.04,268.45c-11.26,0-20.39-9.13-20.39-20.39s9.13-20.39,20.39-20.39,20.39,9.13,20.39,20.39-9.13,20.39-20.39,20.39Z"/>
  </g>
</svg>